# xmcd CD database file
#
# Track frame offsets:
#	150
#	27480
#	53625
#	71283
#	87300
#	105990
#	121650
#	132993
#	151080
#	163194
#	182970
#	202377
#
# Disc length: 2824 seconds
#
# Revision: 0
# Processed by: cddbd v1.5.1PL0 Copyright (c) Steve Scherf et al.
# Submitted via: CDex 1.51
#
DISCID=9f0b060c
DTITLE=andrea reichhart - moment of beauty
DYEAR=2004
DGENRE=Jazz
TTITLE0=hope
TTITLE1=as long
TTITLE2=the boy who lost his smile
TTITLE3=moment of beauty
TTITLE4=one who'll win my heart
TTITLE5=a fool to believe
TTITLE6=espresso
TTITLE7=when I fall in love
TTITLE8=auf der anderen seite von dieser welt
TTITLE9=affair of the heart
TTITLE10=nothing in this world is too good for love
TTITLE11=epilogue
EXTD=YEAR: 2004
EXTT0=
EXTT1=
EXTT2=
EXTT3=
EXTT4=
EXTT5=
EXTT6=
EXTT7=
EXTT8=
EXTT9=
EXTT10=
EXTT11=
PLAYORDER=
